<?xml version="1.0" encoding="UTF-8"?>
<svg id="OBJECTS" xmlns="http://www.w3.org/2000/svg" viewBox="0 0 500 500">
  <defs>
    <style>
      .cls-1 {
        fill: #4c224b;
      }

      .cls-1, .cls-2, .cls-3, .cls-4, .cls-5, .cls-6 {
        stroke-width: 0px;
      }

      .cls-2 {
        fill: #c46966;
      }

      .cls-3 {
        fill: #e2988f;
      }

      .cls-4 {
        fill: #86b9b0;
      }

      .cls-5 {
        fill: #fff;
      }

      .cls-6 {
        fill: #fce8e3;
      }
    </style>
  </defs>
  <circle class="cls-6" cx="250" cy="255.42" r="234.58"/>
  <g>
    <path class="cls-1" d="M386.6,236.61c16.58-96.57-23.19-219.36-132.54-226.36-34.89-2.23-68.98,10.59-86.58,35.32-60.35,23.79-65.42,129.77-58.68,166.25,18.48,100-70.66,82.8-48.02,176.68l186.31-10.26h7.14l182.99,2.35c15.43-70.83-58.14-66.05-50.63-143.97Z"/>
    <rect class="cls-3" x="194.97" y="224.52" width="109.89" height="140.19"/>
    <path class="cls-4" d="M451.61,375.34c-51.72-21.73-146.1-38.1-146.1-38.1-36.24,30.49-82.04,30.29-110.55,0,0,0-95.55,14.14-149.48,33.04,38.54,68.47,110.42,115.65,193.65,119.44,3.73.11,7.44.26,11.21.27,85.59-.12,160.4-46.09,201.27-114.65Z"/>
    <g>
      <path class="cls-5" d="M347.18,207.59c-4.1,0-7.42,5.91-7.42,13.2s3.32,13.2,7.42,13.2,7.42-5.91,7.42-13.2-3.32-13.2-7.42-13.2ZM347.18,228.21c-2.82,0-5.1-4.07-5.1-9.08s2.29-9.08,5.1-9.08,5.1,4.07,5.1,9.08-2.28,9.08-5.1,9.08Z"/>
      <path class="cls-5" d="M144.86,220.79c0,7.29,3.32,13.2,7.42,13.2s7.42-5.91,7.42-13.2-3.32-13.2-7.42-13.2-7.42,5.91-7.42,13.2ZM147.18,219.13c0-5.02,2.28-9.08,5.1-9.08s5.1,4.07,5.1,9.08-2.29,9.08-5.1,9.08-5.1-4.07-5.1-9.08Z"/>
      <path class="cls-3" d="M249.78,54.77h0c-70.84.08-86.95,53.13-85.47,106.55,0,38.51-.23,66.89,3.34,76.41,3.57,9.51,28.4,66.8,82.13,66.89h0c53.73-.1,78.56-57.38,82.13-66.89,3.57-9.53,3.34-37.9,3.34-76.41,1.48-53.41-14.63-106.47-85.47-106.55Z"/>
      <path class="cls-2" d="M249.78,306.2c-21.06-.04-40.06-8.6-56.47-25.44l2.26-2.2c15.8,16.21,34.04,24.45,54.21,24.49,19.83-.04,37.82-8.01,53.44-23.71l2.23,2.22c-16.24,16.31-34.97,24.6-55.67,24.64Z"/>
      <path class="cls-3" d="M167.42,159.48s-14.24-20.96-28.87-8.7c-14.63,12.26-.4,81.87,28.87,69.61,29.27-12.26,0-60.91,0-60.91Z"/>
      <path class="cls-3" d="M332.4,159.48s14.24-20.96,28.87-8.7c14.63,12.26.4,81.87-28.87,69.61-29.27-12.26,0-60.91,0-60.91Z"/>
      <rect class="cls-2" x="162.74" y="198.67" width="3.15" height="22.57" transform="translate(-15.08 12.73) rotate(-4.24)"/>
      <rect class="cls-2" x="322.97" y="207.13" width="24.95" height="3.15" transform="translate(102.4 527.72) rotate(-85.74)"/>
      <path class="cls-2" d="M145.83,186.81c-3.36-11.17-3.39-18.94-.09-23.08,2.45-3.09,5.83-2.9,5.95-2.9l-.21,3.14.1-1.57-.08,1.57c-.09,0-1.93-.07-3.35,1.77-1.44,1.87-3.28,6.97.69,20.15l-3.02.91Z"/>
      <path class="cls-2" d="M355.18,186.81l-3.02-.91c3.96-13.18,2.13-18.29.69-20.15-1.42-1.84-3.27-1.77-3.35-1.77l-.18-3.15c.12-.01,3.5-.19,5.95,2.9,3.3,4.15,3.27,11.91-.09,23.08Z"/>
      <path class="cls-5" d="M158.51,224.23c-.51-.01-1.03-.07-1.53-.18-.14-.04-.23-.15-.36-.21-.9,2.61-2.5,4.36-4.34,4.36-2.82,0-5.1-4.07-5.1-9.08s2.26-9.04,5.06-9.08c1.68-.2,1.24-2.51,0-2.45-4.08.04-7.38,5.93-7.38,13.19s3.32,13.2,7.42,13.2c3.42,0,6.28-4.15,7.13-9.76-.3,0-.6.01-.9,0Z"/>
      <path class="cls-5" d="M347.22,207.6c-1.24-.06-1.68,2.25,0,2.45,2.8.04,5.06,4.08,5.06,9.08s-2.28,9.08-5.1,9.08c-1.57,0-2.94-1.32-3.88-3.31-.27.2-.52.43-.81.61-.62.4-1.27.75-1.92,1.12,1.21,4.35,3.69,7.36,6.6,7.36,4.1,0,7.42-5.91,7.42-13.2s-3.3-13.15-7.38-13.19Z"/>
      <path class="cls-1" d="M163.86,155.19c-.65-37.53,27.35-57.01,27.35-57.01,25.21,44.2,94.73,59.23,158.2,37.28,0,0-6.16-106.2-105.35-99.97-99.19,6.23-80.2,119.7-80.2,119.7Z"/>
    </g>
  </g>
</svg>