<?xml version="1.0" encoding="UTF-8"?>
<svg id="OBJECTS" xmlns="http://www.w3.org/2000/svg" viewBox="0 0 500 500">
  <defs>
    <style>
      .cls-1 {
        fill: #4c224b;
      }

      .cls-1, .cls-2, .cls-3, .cls-4, .cls-5, .cls-6 {
        stroke-width: 0px;
      }

      .cls-2 {
        fill: #c46966;
      }

      .cls-3 {
        fill: #e2988f;
      }

      .cls-4 {
        fill: #86b9b0;
      }

      .cls-5 {
        fill: #b73d49;
      }

      .cls-6 {
        fill: #fce8e3;
      }
    </style>
  </defs>
  <circle class="cls-6" cx="250" cy="252.07" r="237.68" transform="translate(-105.02 250.61) rotate(-45)"/>
  <rect class="cls-3" x="187.71" y="221.02" width="125.75" height="142.04"/>
  <g>
    <path class="cls-4" d="M453.72,375.78c-67.11-29.94-140.26-40.56-140.26-40.56-33.57,35-96.08,35.49-125.75,0,0,0-73.15,10.62-140.26,40.56,41.71,68.49,117.08,114.22,203.13,114.22s161.42-45.74,203.13-114.22Z"/>
    <path class="cls-5" d="M248.81,377.75c-.39,0-.79,0-1.19,0-32.49-.35-59.89-14.66-75.18-39.28l2.71-1.68c14.7,23.67,41.13,37.44,72.5,37.77.38,0,.77,0,1.16,0,32.34,0,61.77-14.42,76.98-37.81l2.68,1.74c-15.81,24.29-46.25,39.26-79.67,39.26Z"/>
  </g>
  <g>
    <path class="cls-1" d="M369.48,142.72c0,65.66-36.06,150.92-115.87,149.32-85.85,0-118.46-75.71-118.46-141.37-15.03-42.68,3.03-88.99,34.31-97.52,19.58-32.65,53.57-43.15,87.72-43.15,65.66,0,130.45,48.27,112.3,132.72Z"/>
    <path class="cls-3" d="M369.29,151.89c-6.69-15.99-20.35-8.14-20.35-8.14,2.84-62.65-29.07-106.1-98.36-106.1s-100.82,52.15-98.36,106.1c0,0-13.66-7.85-20.35,8.14-6.69,15.99,5.52,53.48,13.08,65.4,7.56,11.92,19.01,6.88,19.01,6.88,0,0,2.79,27.42,6.28,36.72,3.49,9.3,43.02,52.07,54.64,58.61,15.24,8.97,37.7,8.97,51.38,0,11.63-6.54,51.16-49.31,54.64-58.61,3.49-9.3,6.22-37.21,6.22-37.21,0,0,11.51,5.52,19.07-6.39,7.56-11.92,19.76-49.41,13.08-65.4Z"/>
    <g>
      <path class="cls-2" d="M251.17,321.61c-28.22,0-49.12-19.56-62.37-34.27l2.37-2.14c12.85,14.26,33.05,33.21,60,33.21,25.46,0,44.03-16.79,58.83-33.21l2.37,2.14c-15.27,16.94-34.49,34.27-61.2,34.27Z"/>
      <rect class="cls-2" x="161.41" y="206.99" width="3.2" height="17.23" transform="translate(-23.02 19.52) rotate(-6.4)"/>
      <rect class="cls-2" x="329.65" y="213.77" width="16.73" height="3.19" transform="translate(88.63 529.12) rotate(-84.02)"/>
      <g>
        <path class="cls-2" d="M140.76,187.85c-.65-2.36-6.1-23.23,1.45-28.94,2.51-1.64,4.56-1.47,5.85-1.05,3.85,1.25,5.77,6,5.98,6.54l-2.98,1.15c-.42-1.07-1.94-3.99-3.99-4.65-.92-.3-1.92-.1-3.03.62-4.3,3.27-2.42,17.38-.2,25.49l-3.08.84Z"/>
        <path class="cls-2" d="M360.42,187.85l-3.08-.84c2.22-8.11,4.1-22.22-.3-25.55-1.01-.65-2-.86-2.93-.56-2.05.66-3.57,3.58-3.99,4.65l-2.98-1.15c.21-.54,2.12-5.29,5.98-6.54,1.29-.42,3.35-.59,5.76.98,7.64,5.78,2.19,26.65,1.54,29.01Z"/>
      </g>
    </g>
    <path class="cls-1" d="M152.23,143.75c5.92-20.43,14.98-38.23,29.2-51.7,39.97,46.59,89.27,76.94,167.51,51.7l6.03-19.84s-9.43-42.08-9.43-43.58-30.96-30.36-30.96-30.36l-40.28-16.53h-41.48l-33.06,9.32-29.15,24.65-18.38,36.97v39.38Z"/>
  </g>
</svg>